<svg xmlns="http://www.w3.org/2000/svg" viewBox="0 0 512 512" style="background-color:#f8fafc;border-radius:20%">
  <!-- Map background (light) -->
  <rect x="0" y="0" width="512" height="512" fill="#f8fafc"/>
  
  <!-- Map features - streets and blocks -->
  <!-- Main roads (darker gray) -->
  <rect x="0" y="120" width="512" height="12" fill="#cbd5e1"/>
  <rect x="0" y="250" width="512" height="14" fill="#cbd5e1"/>
  <rect x="0" y="390" width="512" height="12" fill="#cbd5e1"/>
  <rect x="120" y="0" width="12" height="512" fill="#cbd5e1"/>
  <rect x="256" y="0" width="14" height="512" fill="#cbd5e1"/>
  <rect x="400" y="0" width="12" height="512" fill="#cbd5e1"/>
  
  <!-- Secondary streets (lighter) -->
  <rect x="0" y="60" width="512" height="4" fill="#e2e8f0"/>
  <rect x="0" y="180" width="512" height="4" fill="#e2e8f0"/>
  <rect x="0" y="320" width="512" height="4" fill="#e2e8f0"/>
  <rect x="0" y="450" width="512" height="4" fill="#e2e8f0"/>
  <rect x="60" y="0" width="4" height="512" fill="#e2e8f0"/>
  <rect x="180" y="0" width="4" height="512" fill="#e2e8f0"/>
  <rect x="330" y="0" width="4" height="512" fill="#e2e8f0"/>
  <rect x="460" y="0" width="4" height="512" fill="#e2e8f0"/>
  
  <!-- Parks/green spaces -->
  <rect x="30" y="30" width="80" height="80" fill="#dcfce7" opacity="0.7"/>
  <rect x="350" y="280" width="120" height="100" fill="#dcfce7" opacity="0.7"/>
  
  <!-- Location marker -->
  <path d="M256 96C205.07 96 164 137.07 164 188c0 76.8 92 192 92 192s92-115.2 92-192c0-50.93-41.07-92-92-92zm0 134.4a38.4 38.4 0 1 1 38.4-38.4 38.45 38.45 0 0 1-38.4 38.4z" fill="#ef4444"/>
  
  <!-- Fog layers (semi-transparent gray/white) -->
  <!-- Bottom fog layer -->
  <ellipse cx="100" cy="420" rx="90" ry="35" fill="#475569" opacity="0.8"/>
  <ellipse cx="190" cy="430" rx="100" ry="38" fill="#475569" opacity="0.85"/>
  <ellipse cx="300" cy="425" rx="95" ry="36" fill="#475569" opacity="0.8"/>
  <ellipse cx="410" cy="435" rx="85" ry="33" fill="#475569" opacity="0.75"/>
  
  <!-- Middle fog layer -->
  <ellipse cx="80" cy="280" rx="110" ry="42" fill="#64748b" opacity="0.75"/>
  <ellipse cx="200" cy="290" rx="120" ry="45" fill="#64748b" opacity="0.8"/>
  <ellipse cx="330" cy="285" rx="115" ry="43" fill="#64748b" opacity="0.75"/>
  <ellipse cx="440" cy="295" rx="95" ry="38" fill="#64748b" opacity="0.7"/>
  
  <!-- Top fog layer (lighter, more subtle) -->
  <ellipse cx="120" cy="160" rx="100" ry="38" fill="#94a3b8" opacity="0.7"/>
  <ellipse cx="240" cy="170" rx="110" ry="40" fill="#94a3b8" opacity="0.75"/>
  <ellipse cx="360" cy="165" rx="105" ry="39" fill="#94a3b8" opacity="0.7"/>
</svg>
